<svg xmlns="http://www.w3.org/2000/svg" viewBox="0 0 100 100">
  <!-- Base square for the face -->
  <rect x="20" y="20" width="60" height="60" fill="black"/>
  
  <!-- Pointed ears -->
  <polygon points="20,20 35,5 35,20" fill="black"/>
  <polygon points="65,20 80,5 80,20" fill="black"/>
  
  <!-- Inner ear details -->
  <polygon points="25,18 33,8 33,18" fill="#444"/>
  <polygon points="67,18 75,8 75,18" fill="#444"/>
  
  <!-- Eyes -->
  <rect x="28" y="35" width="14" height="20" rx="2" fill="#FFE5B4"/>
  <rect x="58" y="35" width="14" height="20" rx="2" fill="#FFE5B4"/>
  
  <!-- Pupils -->
  <rect x="33" y="38" width="4" height="14" rx="1" fill="black"/>
  <rect x="63" y="38" width="4" height="14" rx="1" fill="black"/>
  
  <!-- Eye shine -->
  <rect x="31" y="40" width="3" height="3" fill="white"/>
  <rect x="61" y="40" width="3" height="3" fill="white"/>
  
  <!-- Nose -->
  <polygon points="47,55 53,55 50,58" fill="pink"/>
  
  <!-- Curved Whiskers -->
  <path d="M40 55 C 30 53, 20 55, 15 58" stroke="white" stroke-width="1" fill="none"/>
  <path d="M40 60 C 30 58, 20 60, 15 63" stroke="white" stroke-width="1" fill="none"/>
  <path d="M40 65 C 30 63, 20 65, 15 68" stroke="white" stroke-width="1" fill="none"/>
  
  <path d="M60 55 C 70 53, 80 55, 85 58" stroke="white" stroke-width="1" fill="none"/>
  <path d="M60 60 C 70 58, 80 60, 85 63" stroke="white" stroke-width="1" fill="none"/>
  <path d="M60 65 C 70 63, 80 65, 85 68" stroke="white" stroke-width="1" fill="none"/>
</svg>